<svg version="1.1" id="Layer_1" xmlns="http://www.w3.org/2000/svg" xmlns:xlink="http://www.w3.org/1999/xlink" x="0px" y="0px"
	 width="100%" viewBox="0 0 1024 1024" enable-background="new 0 0 1024 1024" xml:space="preserve">
<path fill="#000000" opacity="1.000000" stroke="none" 
	d="
M758.046753,571.178589 
	C743.977783,567.732056 731.076660,562.499817 717.906555,554.411804 
	C721.670593,564.235107 724.386414,573.047607 726.682678,581.993286 
	C730.465393,596.729858 732.313171,611.734009 733.145874,626.874878 
	C733.310303,629.864319 734.296875,631.841553 736.801697,633.412842 
	C760.134521,648.049927 773.554932,669.511963 779.694336,695.956543 
	C780.267395,698.425171 780.888184,700.348572 784.151672,701.016418 
	C804.963684,705.275085 815.252563,716.599426 818.211182,737.954773 
	C819.056885,744.059082 819.732117,750.208618 823.034973,755.646362 
	C824.437073,757.954834 826.184265,759.963013 828.356689,761.551025 
	C830.770386,763.315369 832.763855,765.302490 831.965454,768.593994 
	C831.143311,771.983093 828.433533,773.174194 825.343201,773.858398 
	C812.436218,776.715942 799.974976,774.806458 788.402283,769.000122 
	C770.354309,759.944885 759.583008,745.672302 759.734680,724.671753 
	C759.786560,717.487183 761.729919,710.836365 766.814392,705.446899 
	C768.182617,703.996521 768.673462,702.556763 768.220459,700.494263 
	C763.918823,680.910156 755.351624,663.789612 739.773132,650.662476 
	C738.502502,649.591797 737.146912,648.613525 735.771790,647.679260 
	C735.108521,647.228455 734.308044,646.979797 732.948669,646.353394 
	C732.091980,652.060181 731.316589,657.397827 730.485168,662.726685 
	C728.863770,673.118347 726.186401,683.246704 722.622803,693.130920 
	C721.411255,696.491272 721.012085,699.875061 721.055847,703.418640 
	C721.531799,741.918640 724.657104,780.230103 728.935181,818.472290 
	C730.322937,830.877563 731.552734,843.308838 727.313904,855.570679 
	C724.236023,864.474304 718.386047,870.264832 709.523926,873.025146 
	C702.990479,875.060242 696.306519,876.524353 689.404236,876.271851 
	C686.061890,876.149597 683.985229,877.158386 682.349487,880.391479 
	C678.435059,888.128052 671.428040,892.277283 663.498352,895.021729 
	C652.696960,898.760071 641.442871,900.258911 630.136597,900.830872 
	C608.462280,901.927185 586.818970,901.891907 565.730957,895.517029 
	C547.919922,890.132690 538.947937,878.047180 538.641724,859.347778 
	C538.302124,838.617493 541.346497,818.207397 544.226746,797.780029 
	C545.573242,788.230103 547.131836,778.710266 548.542725,769.169128 
	C548.681030,768.233521 548.456116,767.244141 548.355225,765.516541 
	C525.106995,769.056458 502.104156,769.212158 478.842102,764.607849 
	C478.359924,769.157532 479.367828,773.005737 479.775665,776.865112 
	C482.572449,803.330139 486.661438,829.676025 487.250519,856.343323 
	C487.440063,864.923889 486.340759,873.291443 481.737091,880.856995 
	C475.908508,890.435730 466.542175,894.604187 456.322327,897.091614 
	C437.362091,901.706177 418.040253,901.932373 398.696289,900.789124 
	C387.721069,900.140442 376.849579,898.681458 366.273621,895.341919 
	C357.209900,892.479858 349.463196,888.050415 344.907288,879.331055 
	C343.619843,876.867065 341.664978,876.276306 339.141144,876.344055 
	C331.586151,876.546814 324.228149,875.332397 316.970093,873.266968 
	C303.568054,869.453186 295.732849,860.068420 293.634949,846.312073 
	C291.665161,833.395935 293.794281,820.719421 295.088837,808.011475 
	C296.809265,791.122803 298.653076,774.241699 299.545380,757.294250 
	C300.499512,739.172241 301.976593,721.065674 301.856842,702.894531 
	C301.839172,700.214172 301.687500,697.614014 300.774475,695.034912 
	C284.822510,649.975037 287.630310,605.402405 304.333160,561.203735 
	C305.033417,559.350708 305.691650,557.481934 306.351410,555.670166 
	C305.082367,554.613525 304.294037,555.577515 303.510651,556.020691 
	C260.747620,580.214661 217.963562,578.934021 175.458527,555.624390 
	C148.040436,540.588379 128.160782,518.043762 113.632355,490.654419 
	C98.047531,461.273468 89.660858,429.820160 86.557739,396.750061 
	C81.692444,344.900238 91.352310,296.002686 115.493881,249.964600 
	C132.972260,216.633240 157.098526,189.784836 191.716217,173.489700 
	C216.445755,161.849091 242.332291,157.695267 269.517914,161.202072 
	C294.287170,164.397171 316.866058,173.202484 337.579285,186.931763 
	C341.008392,189.204666 343.040955,188.546631 345.592499,185.712631 
	C369.873932,158.743637 399.508881,139.825104 433.693604,128.022812 
	C466.728485,116.617523 500.701935,112.630157 535.566162,115.521233 
	C578.896973,119.114395 617.883179,133.896912 652.435059,160.227707 
	C663.186340,168.420883 673.139893,177.579590 681.628784,188.151566 
	C684.203125,191.357651 686.011108,191.343948 689.337463,189.131470 
	C716.355347,171.161209 746.055054,161.271240 778.615051,161.199081 
	C807.339111,161.135406 833.258911,170.190186 856.521729,186.969971 
	C885.744568,208.048752 904.577637,236.952637 918.182739,269.608856 
	C935.633240,311.494812 941.544067,355.195618 937.049561,400.250031 
	C933.658813,434.240509 924.726074,466.715851 907.875061,496.629395 
	C887.586487,532.645081 858.740479,558.538513 818.283325,569.903076 
	C798.537964,575.449585 778.509827,575.622314 758.046753,571.178589 
M701.387451,239.069931 
	C689.856018,215.585968 674.339417,195.078735 654.615112,177.935684 
	C621.022217,148.739014 581.965454,132.055603 537.578613,128.143738 
	C499.850403,124.818710 463.025208,128.670746 427.847565,143.389755 
	C367.392212,168.685471 328.115601,213.540207 307.741974,275.300751 
	C298.817505,302.354370 296.811859,330.378479 298.106689,358.704742 
	C298.656891,370.740875 297.792786,382.667603 295.169983,394.452362 
	C292.924805,404.540253 291.333862,414.716309 290.988464,425.073486 
	C289.813324,460.313843 301.934570,490.013245 328.210114,513.637878 
	C349.678436,532.940247 375.288422,544.129089 403.098999,550.674988 
	C410.297760,552.369385 417.507996,554.341003 425.687347,554.218079 
	C424.583679,547.965393 423.626312,542.108521 422.502930,536.283691 
	C420.990601,528.442200 419.266998,520.640930 417.801147,512.791138 
	C417.100098,509.037018 418.460449,506.003571 422.415100,505.160614 
	C426.258636,504.341370 428.246887,506.791199 429.236511,510.186584 
	C429.934998,512.583069 430.689728,514.976868 431.172028,517.420654 
	C437.710327,550.548279 443.847626,583.748413 447.982697,617.276733 
	C449.739746,631.523438 449.980011,645.815369 448.504883,660.142029 
	C447.643524,668.507812 444.572662,676.179321 441.583984,683.802429 
	C445.081818,686.696228 448.542023,685.231873 451.935272,684.823486 
	C455.449799,684.400452 457.840393,685.951294 458.630219,689.365601 
	C459.403259,692.707336 457.576111,694.754578 454.543823,695.809570 
	C450.708160,697.144165 446.802063,697.606995 442.744324,696.851746 
	C437.594086,695.893311 432.997467,693.588257 428.296234,691.436218 
	C415.444275,685.553040 404.735260,690.459961 400.434814,703.937378 
	C397.014038,714.657837 398.257812,725.017273 402.885223,735.029053 
	C405.221985,740.084839 408.636078,744.379761 413.678680,747.153320 
	C420.546875,750.931091 429.097595,749.318420 433.966003,743.217896 
	C437.156464,739.220032 439.115448,734.670593 439.688995,729.577820 
	C440.139008,725.581909 441.979187,722.831909 446.272552,722.960876 
	C449.651855,723.062561 451.378815,726.952881 450.814087,731.583191 
	C449.972412,738.484070 447.476807,744.727234 443.443115,750.480835 
	C446.116638,751.992798 448.644226,751.710754 451.075867,751.676697 
	C470.031616,751.411621 486.967041,745.097351 502.240356,734.149536 
	C526.290344,716.910522 541.269653,693.157898 551.191040,665.747314 
	C560.690308,639.502747 565.478760,612.076599 571.684204,585.009644 
	C577.410889,560.030762 582.716553,534.950928 590.762329,510.572845 
	C592.294006,505.931976 595.396179,504.064819 598.944519,505.506409 
	C603.026611,507.164886 603.415894,510.293945 602.270325,514.159851 
	C599.384888,523.896790 596.594177,533.663086 593.896057,543.453552 
	C592.939087,546.925842 591.678833,550.392517 591.949524,554.121582 
	C592.561646,554.382080 593.001465,554.711243 593.457520,554.735535 
	C594.617310,554.797363 595.797729,554.829895 596.946655,554.687134 
	C626.761414,550.983093 655.119873,542.846924 679.890869,525.254456 
	C719.822266,496.894958 735.618774,457.967255 729.051941,409.689117 
	C726.789917,393.058777 722.826111,376.592682 724.061646,359.626099 
	C724.825134,349.141266 724.572693,338.694489 724.135254,328.190063 
	C722.840271,297.093140 715.012634,267.747986 701.387451,239.069931 
M728.962952,182.523438 
	C716.362061,187.371658 704.307312,193.204651 693.160889,201.897430 
	C705.113159,218.162949 713.689392,235.776230 721.447021,254.254211 
	C723.374023,252.992813 724.871460,252.006195 726.375183,251.029236 
	C751.640442,234.613892 778.556091,230.454956 806.867249,241.505051 
	C828.306702,249.873123 843.435669,265.437988 853.303040,286.133606 
	C855.758606,291.283783 854.363831,295.443298 850.093933,296.133972 
	C845.909119,296.810791 844.289734,293.899078 842.790039,290.712128 
	C822.641235,247.894104 770.377197,234.200150 732.073975,261.674408 
	C725.548157,266.355255 725.550720,266.398163 727.679016,273.985657 
	C735.208740,300.829865 738.212463,328.145142 736.533081,356.004547 
	C735.881226,366.819214 736.229553,377.652802 738.069824,388.373871 
	C740.180298,400.669373 742.807800,412.924194 743.009460,425.437378 
	C743.588867,461.380920 731.942688,492.736847 707.267944,519.098816 
	C702.321838,524.382996 702.252991,524.606506 707.493530,529.777527 
	C735.193787,557.110291 768.583374,567.025391 806.479065,560.007385 
	C840.983521,553.617310 867.338928,533.814453 887.414612,505.660919 
	C913.323792,469.326813 923.365967,427.742981 925.680176,383.943909 
	C926.880127,361.234222 924.740234,338.720612 919.923950,316.444641 
	C912.637390,282.742950 899.593872,251.701096 878.153748,224.469070 
	C841.116516,177.426422 784.297546,161.302307 728.962952,182.523438 
M285.699097,331.533325 
	C286.615540,310.290771 290.257263,289.521545 296.823517,269.303192 
	C297.808197,266.271362 297.416931,264.458588 294.892059,262.481873 
	C269.845032,242.872803 236.264450,241.175720 209.308273,258.210052 
	C196.414276,266.358154 186.870163,277.428192 180.219940,291.075775 
	C178.608948,294.381836 176.371964,296.947906 172.431122,295.145691 
	C168.453659,293.326691 168.205658,289.864746 169.968689,286.251160 
	C171.572495,282.963837 173.213593,279.670227 175.146164,276.571442 
	C201.889038,233.690445 256.794373,221.361816 298.020966,249.752441 
	C299.339050,250.660126 300.504272,252.054443 302.922424,251.783813 
	C310.762177,233.288239 321.198547,215.964508 333.644135,199.305679 
	C325.792389,193.640213 317.905853,189.138382 309.567993,185.364365 
	C280.047791,172.002502 249.570435,167.898056 218.061676,176.741470 
	C180.320190,187.334152 152.477112,211.130722 132.884079,244.309906 
	C99.432945,300.956665 89.863602,361.859375 103.461258,426.237488 
	C111.134079,462.564514 124.954079,496.062195 151.956833,522.584717 
	C179.375992,549.516174 211.848694,564.197388 251.106903,560.882874 
	C277.116272,558.686951 299.000397,547.713440 317.484741,529.579224 
	C322.205261,524.948120 322.104218,524.920776 317.466095,520.417419 
	C287.189423,491.019958 275.030334,455.231354 279.441742,413.441040 
	C280.563599,402.813293 283.563263,392.561218 284.804443,381.971985 
	C286.734467,365.506012 285.019562,348.998169 285.699097,331.533325 
M689.831116,753.196655 
	C686.786926,780.807007 684.440918,808.445068 685.886597,836.551208 
	C698.283630,831.025452 707.083130,831.142578 716.713013,848.076904 
	C718.517456,839.750366 717.964111,832.043884 717.249756,824.379578 
	C715.474365,805.332947 713.315247,786.319946 711.731873,767.258362 
	C710.505859,752.500305 709.603699,737.698730 709.154236,722.898438 
	C708.843018,712.654663 706.843872,702.197632 710.319946,692.154602 
	C719.164246,666.601990 722.651794,640.481567 719.801270,613.515930 
	C717.073181,587.707825 710.025452,563.255310 697.534546,540.460388 
	C695.987000,537.636169 694.677795,534.481628 691.808350,532.639282 
	C691.128601,532.987000 690.650024,533.162048 690.249268,533.446777 
	C662.373718,553.252258 630.855652,563.099426 597.277832,566.892273 
	C587.616882,567.983521 588.468750,566.507812 585.996155,577.026611 
	C579.031616,606.654724 574.030090,636.772583 564.251465,665.701904 
	C554.239319,695.321899 538.776489,721.335693 513.810486,740.973389 
	C507.460571,745.968140 500.559174,750.099243 493.509735,754.194092 
	C511.907776,756.618774 530.076843,756.533752 548.196289,753.115784 
	C551.152405,752.558105 551.715759,750.551086 552.304749,748.226990 
	C554.756104,738.554260 557.152466,728.865723 559.769592,719.237488 
	C561.509827,712.835205 564.386536,710.331970 568.148132,711.370361 
	C571.991211,712.431213 572.975281,715.698303 571.117737,722.357849 
	C565.248657,743.399414 561.793030,764.918945 558.247681,786.424805 
	C554.753845,807.617798 552.553772,828.969543 550.532227,850.335754 
	C549.811707,857.950378 550.482727,865.515442 554.388550,873.463440 
	C558.211182,863.960144 563.538879,857.139160 573.419189,855.866699 
	C583.490234,854.569702 590.289978,860.275940 595.832458,867.740967 
	C611.575378,853.820251 617.500305,853.758484 635.094849,866.912231 
	C646.178833,850.645630 662.570679,850.048035 673.613159,867.216919 
	C675.222229,861.730835 674.702148,856.272034 674.366028,850.808411 
	C673.629944,838.841614 672.901550,826.860046 673.265503,814.872986 
	C673.805908,797.075012 674.739502,779.292236 676.727722,761.582153 
	C678.805908,743.070862 681.351196,724.634766 685.295593,706.412598 
	C686.130981,702.553406 687.982605,699.807556 692.327393,700.259949 
	C695.850647,700.626770 697.519775,704.215454 696.646423,708.908630 
	C693.967590,723.303894 691.466187,737.726135 689.831116,753.196655 
M337.825378,799.378174 
	C336.940887,787.927185 336.305359,776.450195 335.115784,765.031006 
	C333.149445,746.155640 330.259125,727.400696 326.956299,708.711243 
	C326.271088,704.833740 327.131531,701.421143 331.437683,700.555420 
	C335.794708,699.679565 337.783600,702.474548 338.484222,706.427734 
	C340.079102,715.426819 341.834869,724.400635 343.246429,733.428345 
	C346.229706,752.508118 348.058289,771.716492 349.518311,790.971252 
	C350.903381,809.237915 352.064270,827.492554 351.503906,845.831665 
	C351.285431,852.981628 351.474365,860.164490 353.196075,868.237610 
	C358.112762,859.987976 363.509491,854.479736 372.726929,854.606567 
	C381.811981,854.731506 387.669434,859.940308 392.171143,867.165527 
	C406.506927,853.658569 413.373840,853.725647 431.276459,867.462830 
	C436.818512,860.606934 443.167206,854.654846 452.971161,855.967773 
	C462.680969,857.268188 468.017487,863.987305 471.480316,873.323730 
	C473.867981,868.794006 474.716858,865.159241 474.838257,861.251465 
	C475.113129,852.405090 474.514587,843.607605 473.717529,834.813293 
	C471.658752,812.097168 468.821838,789.470337 466.016083,766.838379 
	C465.618011,763.627380 464.505646,762.757263 461.254486,763.006409 
	C450.933350,763.797241 440.615265,763.812927 430.459137,761.200806 
	C429.060089,760.841064 427.489014,760.948181 426.021454,761.088562 
	C415.065704,762.136902 405.896088,758.408630 398.867889,750.151245 
	C386.823334,736.000305 384.197266,719.591675 388.444855,701.855957 
	C392.272919,685.872009 407.248108,673.185059 426.248993,678.184631 
	C429.284760,678.983398 430.549530,677.712463 431.623322,675.327393 
	C434.666351,668.568359 436.343689,661.504883 436.784027,654.100464 
	C438.431519,626.398438 433.473999,599.357178 428.875458,572.258301 
	C428.178986,568.153870 426.297485,566.737000 422.412872,566.254272 
	C391.732361,562.441833 363.048553,552.915344 337.015839,535.956360 
	C335.648590,535.065674 334.455383,533.783203 332.649750,533.810486 
	C331.117310,534.482422 330.523224,535.925903 329.788971,537.203979 
	C302.602112,584.527893 294.277313,634.340149 310.852081,687.088745 
	C313.730072,696.247803 314.546631,705.221375 314.030792,714.569641 
	C313.361420,726.701355 312.876678,738.844482 312.086426,750.968018 
	C311.101410,766.080444 310.077026,781.185364 308.581848,796.268799 
	C307.106384,811.153198 304.331604,825.971191 305.248535,841.043762 
	C305.403748,843.595276 305.375183,846.184814 307.343170,848.514099 
	C309.925232,842.115234 313.567383,837.124329 319.829498,834.496094 
	C326.413940,831.732483 332.450928,833.741211 339.069366,837.455811 
	C339.069153,824.475037 339.043610,812.391418 337.825378,799.378174 
M771.872620,722.353943 
	C769.624939,736.396179 779.395081,752.350464 794.291748,758.798828 
	C800.147583,761.333801 806.086548,763.678650 813.481384,762.322998 
	C808.158813,753.498474 807.473938,744.137207 805.566833,735.076294 
	C803.236328,724.003113 797.216431,716.052795 785.746887,713.047302 
	C776.288513,710.568970 774.363220,711.715759 771.872620,722.353943 
M413.484528,888.887695 
	C416.642670,888.826660 419.801086,888.778076 422.958801,888.699280 
	C424.517853,888.660339 425.900024,888.408386 426.409912,886.538391 
	C428.586731,878.554749 420.181458,867.388977 411.833954,867.231506 
	C403.878937,867.081482 398.076172,873.278137 396.532776,883.314758 
	C396.017395,886.666138 397.066376,888.496033 400.531219,888.611633 
	C404.518555,888.744751 408.508575,888.797424 413.484528,888.887695 
M607.750793,888.803467 
	C613.885254,888.768127 620.020447,888.778687 626.153625,888.671265 
	C628.143066,888.636475 630.130310,888.492188 630.693359,885.826965 
	C632.666504,876.486694 622.891296,865.916199 613.526306,867.347778 
	C607.539429,868.263062 602.456055,874.422241 601.367065,882.080261 
	C600.592651,887.526978 601.298462,888.393799 607.750793,888.803467 
M563.652527,880.770691 
	C570.752136,885.739136 579.120178,886.272156 587.285095,887.445618 
	C589.154724,887.714355 589.901917,886.331604 589.974487,884.611328 
	C590.256958,877.915344 588.309875,872.023499 582.960571,867.803589 
	C577.448914,863.455627 570.330444,864.807068 566.513733,870.736206 
	C564.714600,873.531067 563.288696,876.565735 563.652527,880.770691 
M442.923401,887.153931 
	C448.524506,886.434082 454.004364,885.192749 459.317627,883.268616 
	C460.873505,882.705200 462.382385,882.149597 462.713043,880.097412 
	C463.374756,875.990906 459.661896,869.129456 455.431610,866.744507 
	C450.792206,864.129028 446.774872,865.550354 443.126526,868.670227 
	C439.121582,872.095276 437.657959,876.790527 436.889771,881.832153 
	C436.048767,887.351807 436.353577,887.750000 442.923401,887.153931 
M641.340820,881.704407 
	C640.660645,886.089844 642.813782,887.406128 646.776306,886.657104 
	C652.147583,885.641907 657.510742,884.569031 662.497803,882.204529 
	C663.992065,881.496033 665.439819,880.756104 665.894592,878.870544 
	C666.919128,874.623108 663.552246,867.775635 659.161255,865.377625 
	C655.072266,863.144531 650.196228,864.198486 646.640808,868.199890 
	C643.438965,871.803284 642.174683,876.251221 641.340820,881.704407 
M385.465424,885.646606 
	C386.778870,878.429443 384.791840,872.183105 379.590759,867.105225 
	C376.151093,863.747009 372.010895,863.123108 367.725830,865.497864 
	C363.626617,867.769592 360.368011,874.275269 361.153748,878.095337 
	C361.406464,879.324158 362.000977,880.307190 363.103302,880.812378 
	C370.028107,883.985718 377.082825,886.677002 385.465424,885.646606 
M315.621490,854.996948 
	C314.667023,858.467041 316.225555,860.264404 319.480743,861.257019 
	C324.610291,862.821228 329.783142,863.897339 335.176086,863.872437 
	C337.749298,863.860535 338.876465,862.716187 338.631805,860.202454 
	C338.156830,855.322571 336.992035,850.630432 333.834106,846.760071 
	C329.419464,841.349609 322.099457,841.893616 318.271454,847.750977 
	C316.969421,849.743347 316.277222,851.947937 315.621490,854.996948 
M702.603882,844.689941 
	C698.059143,841.922974 694.031128,842.976624 690.485413,846.507629 
	C687.586609,849.394592 685.411377,859.963257 687.728271,862.375854 
	C690.745850,865.518372 694.825928,863.389893 698.472778,863.095642 
	C698.636536,863.082458 698.797058,863.030151 698.959473,862.998230 
	C708.496582,861.123474 710.620300,856.183899 705.449219,847.780457 
	C704.852539,846.810852 703.955200,846.026184 702.603882,844.689941 
z"/>
<path fill="#000000" opacity="1.000000" stroke="none" 
	d="
M674.315308,418.792175 
	C672.701416,433.909119 666.016602,445.296875 652.144531,451.131042 
	C634.858643,458.400940 615.137268,448.914520 608.083679,430.328278 
	C603.550537,418.383453 604.156128,406.485382 609.764343,395.024170 
	C616.993103,380.251251 629.474670,373.054138 644.240906,374.786682 
	C657.769043,376.373962 669.724670,388.110352 673.187439,402.962708 
	C674.374756,408.055389 674.386230,413.171417 674.315308,418.792175 
M645.620544,400.768158 
	C645.720825,399.447601 645.991455,398.114014 645.891663,396.808777 
	C645.481201,391.438904 641.483093,387.412689 635.918701,386.619904 
	C630.856262,385.898651 625.915710,389.179596 624.040161,394.508301 
	C622.385864,399.208435 624.485962,404.687103 628.969666,407.368134 
	C635.043457,410.999939 641.584106,408.676514 645.620544,400.768158 
z"/>
<path fill="#000000" opacity="1.000000" stroke="none" 
	d="
M397.187927,379.676575 
	C415.349518,393.604675 419.723114,419.670227 407.335907,438.503571 
	C396.059509,455.648132 373.514374,458.316650 358.426056,444.292664 
	C338.854401,426.101685 343.086823,390.352325 366.544098,377.918732 
	C376.712677,372.528809 387.062103,373.217743 397.187927,379.676575 
M380.811279,387.510132 
	C372.780823,385.128387 365.993073,389.019073 365.306488,396.397339 
	C364.786499,401.984772 368.324371,407.315247 373.410736,408.607941 
	C378.637787,409.936340 384.120911,407.457947 386.412933,402.730804 
	C389.111084,397.166077 387.413330,392.026459 380.811279,387.510132 
z"/>
<path fill="#000000" opacity="1.000000" stroke="none" 
	d="
M527.188721,432.588074 
	C533.989502,434.064087 540.076660,436.252502 545.732361,439.565399 
	C548.630676,441.263092 550.498840,443.685730 548.749817,446.973694 
	C546.952576,450.352325 543.939514,449.853577 540.944275,448.367340 
	C520.443298,438.194824 499.874695,438.777710 479.311310,448.134277 
	C476.025787,449.629242 472.707092,450.837341 470.709442,446.815552 
	C468.722931,442.816132 471.593781,440.816223 474.833862,439.165131 
	C491.363678,430.742096 508.681610,428.656281 527.188721,432.588074 
z"/>
<path fill="#000000" opacity="1.000000" stroke="none" 
	d="
M498.702393,468.455750 
	C513.861450,466.341003 527.934814,468.539307 541.384155,474.811554 
	C542.284546,475.231476 543.197876,475.673523 543.994690,476.256348 
	C546.208740,477.876068 547.616821,479.952118 545.951660,482.625519 
	C544.451050,485.034729 542.196960,485.715790 539.476074,484.413483 
	C519.471069,474.838654 499.461487,474.938660 479.462738,484.444366 
	C476.700836,485.757111 474.130768,485.652954 472.616394,482.739105 
	C471.078461,479.779999 472.672577,477.447235 475.208801,476.104034 
	C482.441467,472.273621 490.044617,469.435028 498.702393,468.455750 
z"/>
<path fill="#000000" opacity="1.000000" stroke="none" 
	d="
M485.059601,525.449585 
	C481.630646,526.703308 478.502228,527.208008 477.126465,523.451904 
	C475.799011,519.827637 478.357117,517.908508 481.299835,516.624207 
	C499.832275,508.536255 518.368652,508.418610 536.879883,516.709473 
	C539.066162,517.688660 541.046265,518.902161 541.240540,521.653442 
	C541.514404,525.530823 538.143860,527.485046 533.881348,525.637573 
	C522.744995,520.810608 511.246033,519.360474 499.251709,521.205566 
	C494.434265,521.946716 489.871826,523.350037 485.059601,525.449585 
z"/>
<path fill="#000000" opacity="1.000000" stroke="none" 
	d="
M492.799896,565.747681 
	C490.666168,566.438110 488.917603,566.978699 487.183411,567.562012 
	C484.299255,568.531982 482.156830,567.544067 481.146271,564.809814 
	C480.069977,561.897766 481.787445,559.987366 484.253326,558.841797 
	C490.203064,556.077820 496.553406,554.665405 503.040039,554.112976 
	C513.142822,553.252686 522.959961,554.699768 532.361511,558.604065 
	C535.329285,559.836609 537.957825,561.592163 536.569092,565.302307 
	C535.167480,569.046814 532.191101,568.580627 529.060974,567.433167 
	C517.305847,563.123657 505.313416,562.961060 492.799896,565.747681 
z"/>
<path fill="#000000" opacity="1.000000" stroke="none" 
	d="
M413.883362,704.554810 
	C419.504089,702.759766 422.595673,705.965393 424.728119,709.812866 
	C428.225555,716.123047 429.115417,722.999146 426.925629,730.011353 
	C425.879272,733.361938 423.753510,735.889587 420.020844,736.407166 
	C416.444489,736.903137 414.026642,734.903809 412.074310,732.252502 
	C405.735809,723.644775 406.469940,710.120544 413.883362,704.554810 
z"/>
<path fill="#000000" opacity="1.000000" stroke="none" 
	d="
M628.313110,330.041321 
	C625.156372,325.250946 626.132507,322.313507 630.984741,320.786652 
	C643.449463,316.864410 661.070312,323.219727 668.206909,334.189880 
	C669.984924,336.922943 671.082458,339.787079 668.021057,342.171173 
	C665.184509,344.380188 662.335999,343.558990 660.068359,340.963593 
	C652.827026,332.675629 644.051331,328.751984 632.944153,331.155792 
	C631.441040,331.481110 629.959045,331.134430 628.313110,330.041321 
z"/>
<path fill="#000000" opacity="1.000000" stroke="none" 
	d="
M353.662689,342.642639 
	C349.983093,340.002960 350.490997,337.187378 352.509155,334.217499 
	C359.974945,323.231018 376.331848,317.192596 389.104492,320.627960 
	C392.380127,321.508972 394.786560,323.154602 394.005981,326.831024 
	C393.275604,330.271027 390.550720,331.793610 387.198456,331.082764 
	C376.438843,328.801178 368.062042,332.703064 361.084412,340.621124 
	C359.186676,342.774567 356.938141,343.919525 353.662689,342.642639 
z"/>
<path fill="#000000" opacity="1.000000" stroke="none" 
	d="
M513.402771,602.370117 
	C505.311035,601.950256 497.666718,601.480042 490.266602,604.237488 
	C487.396759,605.306763 484.845184,604.781921 483.804016,601.576233 
	C482.782379,598.430725 484.528870,596.433472 487.323090,595.381653 
	C497.413513,591.583435 507.732849,591.106018 518.199280,593.547546 
	C521.924988,594.416626 525.651184,595.356506 528.958862,597.384338 
	C531.439514,598.905151 533.138794,600.987366 531.642273,603.993164 
	C530.141785,607.007141 527.626709,606.796204 524.792358,605.767273 
	C521.210083,604.466797 517.500610,603.517029 513.402771,602.370117 
z"/>
<path fill="#000000" opacity="1.000000" stroke="none" 
	d="
M507.297729,631.326172 
	C512.855042,632.320801 517.648682,634.136475 522.142090,636.750061 
	C524.923218,638.367737 526.490845,640.649109 524.717346,643.749634 
	C523.043762,646.675659 520.420776,646.391052 517.784363,644.940063 
	C509.105194,640.163452 499.881104,639.180115 490.246155,640.942688 
	C487.455658,641.453125 485.141541,640.651306 484.389832,637.708435 
	C483.618530,634.689026 485.542328,632.954041 488.106934,632.121887 
	C494.255859,630.126770 500.560822,630.421326 507.297729,631.326172 
z"/>
<path fill="#000000" opacity="1.000000" stroke="none" 
	d="
M485.986145,675.346863 
	C482.482849,675.418152 479.532990,674.908020 479.482025,671.112549 
	C479.429413,667.194031 482.583313,666.125732 485.702789,666.090942 
	C495.179047,665.985107 503.714966,668.840271 511.036560,674.994202 
	C513.500610,677.065430 514.583435,679.736694 512.614868,682.456299 
	C510.389771,685.530334 507.653137,684.290222 505.263031,682.311218 
	C499.789307,677.778870 493.433380,675.684387 485.986145,675.346863 
z"/>
</svg>