<svg version="1.1" id="Layer_1" xmlns="http://www.w3.org/2000/svg" xmlns:xlink="http://www.w3.org/1999/xlink" x="0px" y="0px"
	 width="100%" viewBox="0 0 1024 1024" enable-background="new 0 0 1024 1024" xml:space="preserve">
<path fill="currentColor" opacity="1.000000" stroke="none" 
	d="
M339.615570,250.269318 
	C358.757996,258.075836 375.302032,269.045563 389.022797,284.047943 
	C391.669708,286.942078 393.614532,286.705231 396.600525,284.605042 
	C425.139496,264.532166 456.946289,252.873016 491.513885,249.061035 
	C535.840332,244.172897 577.317749,253.291962 615.829285,275.788635 
	C619.567444,277.972321 623.316711,280.188019 626.795349,282.749268 
	C629.669312,284.865265 631.449158,284.463135 633.952515,281.948090 
	C652.223511,263.591370 673.781982,250.895630 699.096130,244.838837 
	C752.170227,232.140091 804.304626,257.627411 828.256165,308.001587 
	C841.146851,335.112976 844.144348,363.727600 841.509705,393.288391 
	C837.994995,432.723053 823.585205,467.875305 799.887146,499.287415 
	C787.328003,515.934753 772.469543,530.205872 753.472656,539.521362 
	C739.935059,546.159790 725.761475,549.071411 710.856140,545.316040 
	C706.097778,544.117126 704.385071,545.734375 702.541992,549.990906 
	C692.813660,572.457703 682.455811,594.651733 674.597473,617.892151 
	C665.062866,646.090149 658.436829,674.854614 657.169861,704.707581 
	C656.908691,710.859802 656.567261,717.009766 656.174011,723.155090 
	C654.969971,741.969788 643.994873,754.648865 624.732788,757.769653 
	C605.240112,760.927795 585.500244,760.906372 566.014343,757.686951 
	C547.158081,754.571594 537.374329,742.351990 535.668640,722.148132 
	C534.534973,708.720398 532.206116,695.410156 531.531433,681.931030 
	C531.328857,677.884949 529.823547,676.422058 525.252441,676.947998 
	C518.842773,677.685486 512.270996,677.339478 505.791656,677.007446 
	C502.599609,676.843811 501.469208,677.528870 501.133606,680.882568 
	C499.676361,695.445068 498.261719,710.028564 496.147614,724.504578 
	C492.871735,746.935913 484.261475,755.831055 461.684723,758.451599 
	C441.820160,760.757324 421.758453,760.861877 401.939819,757.369019 
	C383.143188,754.056274 371.286377,740.783386 370.808319,721.812561 
	C369.537445,671.383789 356.534332,623.867310 336.195099,578.075623 
	C331.665283,567.877197 327.096832,557.695679 322.616455,547.475586 
	C321.737061,545.469604 320.914185,543.977478 318.244293,544.650085 
	C290.559814,551.623718 268.357910,540.242798 248.272858,523.034363 
	C227.315323,505.078186 212.024521,482.703674 200.242676,457.924072 
	C186.818939,429.691223 179.266663,399.947174 180.017303,368.578613 
	C180.906174,331.433502 191.771408,297.917358 219.687958,271.905426 
	C244.443848,248.838577 274.039246,239.221664 307.823273,242.465515 
	C318.710327,243.510864 329.097809,246.275650 339.615570,250.269318 
M369.482666,627.132507 
	C378.739349,656.871338 383.672363,687.312927 384.382721,718.449036 
	C384.752991,734.679382 393.266052,743.556702 409.074646,744.741394 
	C426.047333,746.013367 442.989807,746.217712 459.973297,744.856140 
	C473.265503,743.790588 479.802063,738.278442 481.718353,725.196472 
	C484.443665,706.591553 486.541870,687.909302 487.800049,669.140686 
	C488.246674,662.478821 491.998108,659.325317 497.998169,661.179016 
	C510.336823,664.990967 522.540161,664.730042 534.856689,661.130920 
	C540.404175,659.509827 543.791138,662.314941 544.334045,668.090393 
	C546.000061,685.810791 547.504150,703.553101 549.596130,721.224792 
	C551.547058,737.705017 557.319214,743.559998 570.986084,744.735046 
	C586.957825,746.108032 602.906738,746.206543 618.880493,744.743164 
	C632.880188,743.460693 640.304688,736.493103 641.961731,722.545593 
	C642.392883,718.916260 642.585388,715.247314 642.679260,711.591187 
	C643.068970,696.419800 644.597290,681.363464 647.272827,666.433655 
	C654.229126,627.617310 667.816101,590.999451 684.687439,555.549683 
	C702.936401,517.205383 709.928467,477.126953 703.619690,435.064056 
	C697.659790,395.327393 682.721008,359.189209 656.125000,328.852386 
	C610.564087,276.883270 553.113403,254.367859 484.433960,264.680725 
	C427.999847,273.154816 384.763977,302.905060 354.377228,351.213745 
	C334.008575,383.595764 322.592590,418.996643 320.580353,457.112488 
	C318.903503,488.874603 325.280579,519.417664 338.301025,548.434082 
	C349.758759,573.968079 361.134430,599.514282 369.482666,627.132507 
M316.352325,400.003479 
	C328.591614,361.525269 348.005188,327.431549 377.889435,299.816437 
	C380.647491,297.267792 380.170441,295.731049 377.909729,293.362152 
	C369.795746,284.859894 360.685059,277.643829 350.585785,271.676208 
	C328.074951,258.374542 303.817780,252.984146 278.088440,258.030396 
	C236.984375,266.092072 212.152237,292.469604 200.248886,331.425598 
	C190.497574,363.338654 193.192688,395.379181 203.386765,426.759491 
	C214.563751,461.165375 232.601852,491.387177 260.707733,514.789185 
	C274.894287,526.601440 290.608429,534.882690 310.096924,531.849060 
	C315.936279,530.940002 316.328278,530.557251 314.583374,524.831909 
	C308.906464,506.204529 306.309875,487.049103 306.220459,467.694580 
	C306.115417,444.961517 309.437134,422.574127 316.352325,400.003479 
M683.361450,341.213562 
	C719.458801,400.195770 730.260864,462.877747 710.369263,530.396545 
	C720.893372,533.370483 730.793518,533.068298 740.584534,529.520386 
	C751.411865,525.596985 760.695435,519.135315 769.036255,511.338257 
	C798.898987,483.422211 816.984985,448.943451 824.637329,409.058716 
	C831.335876,374.145142 829.621521,339.851196 811.853210,308.112885 
	C793.842407,275.941254 766.257690,257.801605 728.985535,256.425751 
	C701.175354,255.399185 676.776855,265.215424 655.240295,282.500305 
	C650.747437,286.106140 646.256592,289.747375 642.747437,294.731720 
	C658.607971,308.162109 671.984436,323.347290 683.361450,341.213562 
z"/>
<path fill="currentColor" opacity="1.000000" stroke="none" 
	d="
M502.538391,461.054260 
	C509.591919,460.464447 511.927338,462.602478 512.031616,469.471497 
	C512.223511,482.117279 511.652771,494.766968 513.255676,507.389130 
	C517.160828,538.141846 533.075012,560.864502 559.141846,576.943665 
	C560.565979,577.822205 561.834412,578.443542 563.757568,577.919556 
	C586.407471,571.747986 608.510864,584.882141 614.210510,607.880493 
	C615.168091,611.744446 615.549377,615.747559 616.369629,619.650085 
	C617.832886,626.612915 620.420349,633.057556 625.806885,637.996521 
	C628.144531,640.139954 630.047424,642.458008 628.987061,645.803040 
	C627.821838,649.479065 624.714172,650.806458 621.215759,651.061462 
	C605.754700,652.188354 590.976685,649.673889 577.318542,642.088501 
	C564.433472,634.932373 554.840210,624.976807 551.388794,610.125000 
	C550.126404,604.692749 549.927490,599.117920 551.349670,593.786743 
	C552.358887,590.003357 551.291138,588.073486 548.263306,586.009766 
	C534.493469,576.624084 522.632141,565.295898 513.885132,550.959473 
	C504.194702,535.076782 499.879333,517.539917 498.846130,499.213776 
	C498.257477,488.773224 497.338196,478.285950 498.519257,467.785370 
	C498.839050,464.942261 499.366791,462.545166 502.538391,461.054260 
M589.896240,594.562744 
	C587.856140,593.461304 585.914124,592.087219 583.756897,591.311340 
	C578.050354,589.258606 571.494873,587.042847 566.736023,591.573303 
	C562.263062,595.831543 563.510559,602.466064 564.988281,608.158325 
	C568.960999,623.461853 589.564270,638.011902 605.355957,636.852905 
	C605.947754,636.809387 606.512512,636.398010 607.575684,635.956177 
	C603.598938,627.426819 602.904968,618.246155 600.488220,609.495300 
	C598.849548,603.561829 595.448425,598.697754 589.896240,594.562744 
z"/>
</svg>
